<mxfile host="Electron" modified="2023-11-28T17:28:02.765Z" agent="Mozilla/5.0 (Windows NT 10.0; Win64; x64) AppleWebKit/537.36 (KHTML, like Gecko) draw.io/21.8.2 Chrome/114.0.5735.289 Electron/25.8.1 Safari/537.36" etag="hHsm0_G8fdgVgdXHG3O_" version="21.8.2" type="device">
  <diagram name="Page-1" id="x-uxpsHx32nLOm2oYGz4">
    <mxGraphModel dx="1823" dy="866" grid="1" gridSize="10" guides="1" tooltips="1" connect="1" arrows="1" fold="1" page="1" pageScale="1" pageWidth="827" pageHeight="1169" math="0" shadow="0">
      <root>
        <mxCell id="0" />
        <mxCell id="1" parent="0" />
        <mxCell id="iNsdmit7dDFyfxii4Sh--5" value="armes" style="swimlane;whiteSpace=wrap;html=1;" vertex="1" parent="1">
          <mxGeometry x="40" y="120" width="200" height="130" as="geometry" />
        </mxCell>
        <mxCell id="iNsdmit7dDFyfxii4Sh--18" value="&lt;u&gt;id INTEGER &amp;lt;pk&amp;gt;&lt;/u&gt;" style="text;html=1;align=center;verticalAlign=middle;resizable=0;points=[];autosize=1;strokeColor=none;fillColor=none;" vertex="1" parent="iNsdmit7dDFyfxii4Sh--5">
          <mxGeometry y="30" width="120" height="30" as="geometry" />
        </mxCell>
        <mxCell id="iNsdmit7dDFyfxii4Sh--19" value="nom VARCHAR(64)" style="text;html=1;align=center;verticalAlign=middle;resizable=0;points=[];autosize=1;strokeColor=none;fillColor=none;" vertex="1" parent="iNsdmit7dDFyfxii4Sh--5">
          <mxGeometry y="60" width="130" height="30" as="geometry" />
        </mxCell>
        <mxCell id="iNsdmit7dDFyfxii4Sh--20" value="livre_id INTEGER &amp;lt;fk&amp;gt;" style="text;html=1;align=center;verticalAlign=middle;resizable=0;points=[];autosize=1;strokeColor=none;fillColor=none;" vertex="1" parent="iNsdmit7dDFyfxii4Sh--5">
          <mxGeometry y="90" width="140" height="30" as="geometry" />
        </mxCell>
        <mxCell id="iNsdmit7dDFyfxii4Sh--6" value="armes_fiche_personnage" style="swimlane;whiteSpace=wrap;html=1;startSize=23;" vertex="1" parent="1">
          <mxGeometry x="304" y="60" width="220" height="130" as="geometry" />
        </mxCell>
        <mxCell id="iNsdmit7dDFyfxii4Sh--35" value="&lt;u&gt;id INTEGER &amp;lt;pk&amp;gt;&lt;/u&gt;" style="text;html=1;align=center;verticalAlign=middle;resizable=0;points=[];autosize=1;strokeColor=none;fillColor=none;" vertex="1" parent="iNsdmit7dDFyfxii4Sh--6">
          <mxGeometry y="30" width="120" height="30" as="geometry" />
        </mxCell>
        <mxCell id="iNsdmit7dDFyfxii4Sh--36" value="fiche_personnage_id INTEGER &amp;lt;fk&amp;gt;" style="text;html=1;align=center;verticalAlign=middle;resizable=0;points=[];autosize=1;strokeColor=none;fillColor=none;" vertex="1" parent="iNsdmit7dDFyfxii4Sh--6">
          <mxGeometry y="60" width="220" height="30" as="geometry" />
        </mxCell>
        <mxCell id="iNsdmit7dDFyfxii4Sh--37" value="armes_id INTEGER &amp;lt;fk&amp;gt;" style="text;html=1;align=center;verticalAlign=middle;resizable=0;points=[];autosize=1;strokeColor=none;fillColor=none;" vertex="1" parent="iNsdmit7dDFyfxii4Sh--6">
          <mxGeometry y="90" width="160" height="30" as="geometry" />
        </mxCell>
        <mxCell id="iNsdmit7dDFyfxii4Sh--7" value="disciplines_kai_fiche_personnage" style="swimlane;whiteSpace=wrap;html=1;" vertex="1" parent="1">
          <mxGeometry x="600" y="415" width="220" height="135" as="geometry" />
        </mxCell>
        <mxCell id="iNsdmit7dDFyfxii4Sh--32" value="&lt;u&gt;id INTEGER &amp;lt;pk&amp;gt;&lt;/u&gt;" style="text;html=1;align=center;verticalAlign=middle;resizable=0;points=[];autosize=1;strokeColor=none;fillColor=none;" vertex="1" parent="iNsdmit7dDFyfxii4Sh--7">
          <mxGeometry y="30" width="120" height="30" as="geometry" />
        </mxCell>
        <mxCell id="iNsdmit7dDFyfxii4Sh--33" value="fiche_personnage_id INTEGER &amp;lt;fk&amp;gt;" style="text;html=1;align=center;verticalAlign=middle;resizable=0;points=[];autosize=1;strokeColor=none;fillColor=none;" vertex="1" parent="iNsdmit7dDFyfxii4Sh--7">
          <mxGeometry y="60" width="220" height="30" as="geometry" />
        </mxCell>
        <mxCell id="iNsdmit7dDFyfxii4Sh--34" value="&lt;span style=&quot;color: rgb(0, 0, 0); font-family: Helvetica; font-size: 12px; font-style: normal; font-variant-ligatures: normal; font-variant-caps: normal; font-weight: 400; letter-spacing: normal; orphans: 2; text-align: center; text-indent: 0px; text-transform: none; widows: 2; word-spacing: 0px; -webkit-text-stroke-width: 0px; background-color: rgb(251, 251, 251); text-decoration-thickness: initial; text-decoration-style: initial; text-decoration-color: initial; float: none; display: inline !important;&quot;&gt;disciplines_kai_id INTEGER &amp;lt;fk&amp;gt;&lt;/span&gt;" style="text;whiteSpace=wrap;html=1;" vertex="1" parent="iNsdmit7dDFyfxii4Sh--7">
          <mxGeometry x="10" y="90" width="230" height="40" as="geometry" />
        </mxCell>
        <mxCell id="iNsdmit7dDFyfxii4Sh--8" value="sauvegarde" style="swimlane;whiteSpace=wrap;html=1;startSize=23;" vertex="1" parent="1">
          <mxGeometry x="30" y="370" width="200" height="190" as="geometry" />
        </mxCell>
        <mxCell id="iNsdmit7dDFyfxii4Sh--38" value="&lt;u&gt;id INTEGER &amp;lt;pk&amp;gt;&lt;/u&gt;" style="text;html=1;align=center;verticalAlign=middle;resizable=0;points=[];autosize=1;strokeColor=none;fillColor=none;" vertex="1" parent="iNsdmit7dDFyfxii4Sh--8">
          <mxGeometry y="30" width="120" height="30" as="geometry" />
        </mxCell>
        <mxCell id="iNsdmit7dDFyfxii4Sh--39" value="nom VARCHAR(64)" style="text;html=1;align=center;verticalAlign=middle;resizable=0;points=[];autosize=1;strokeColor=none;fillColor=none;" vertex="1" parent="iNsdmit7dDFyfxii4Sh--8">
          <mxGeometry y="60" width="130" height="30" as="geometry" />
        </mxCell>
        <mxCell id="iNsdmit7dDFyfxii4Sh--40" value="no_chapitre_id INTEGER &amp;lt;fk&amp;gt;" style="text;html=1;align=center;verticalAlign=middle;resizable=0;points=[];autosize=1;strokeColor=none;fillColor=none;" vertex="1" parent="iNsdmit7dDFyfxii4Sh--8">
          <mxGeometry y="90" width="190" height="30" as="geometry" />
        </mxCell>
        <mxCell id="iNsdmit7dDFyfxii4Sh--41" value="livre_id INTEGER &amp;lt;fk&amp;gt;" style="text;html=1;align=center;verticalAlign=middle;resizable=0;points=[];autosize=1;strokeColor=none;fillColor=none;" vertex="1" parent="iNsdmit7dDFyfxii4Sh--8">
          <mxGeometry y="120" width="140" height="30" as="geometry" />
        </mxCell>
        <mxCell id="iNsdmit7dDFyfxii4Sh--42" value="fiche_id INTEGER &amp;lt;fk&amp;gt;" style="text;html=1;align=center;verticalAlign=middle;resizable=0;points=[];autosize=1;strokeColor=none;fillColor=none;" vertex="1" parent="iNsdmit7dDFyfxii4Sh--8">
          <mxGeometry y="150" width="150" height="30" as="geometry" />
        </mxCell>
        <mxCell id="iNsdmit7dDFyfxii4Sh--9" value="lien_chapitre" style="swimlane;whiteSpace=wrap;html=1;" vertex="1" parent="1">
          <mxGeometry x="30" y="690" width="220" height="140" as="geometry" />
        </mxCell>
        <mxCell id="iNsdmit7dDFyfxii4Sh--26" value="&lt;u&gt;id INTEGER &amp;lt;pk&amp;gt;&lt;/u&gt;" style="text;html=1;align=center;verticalAlign=middle;resizable=0;points=[];autosize=1;strokeColor=none;fillColor=none;" vertex="1" parent="iNsdmit7dDFyfxii4Sh--9">
          <mxGeometry y="30" width="120" height="30" as="geometry" />
        </mxCell>
        <mxCell id="iNsdmit7dDFyfxii4Sh--27" value="no_chapitre_origine INTEGER &amp;lt;fk&amp;gt;" style="text;html=1;align=center;verticalAlign=middle;resizable=0;points=[];autosize=1;strokeColor=none;fillColor=none;" vertex="1" parent="iNsdmit7dDFyfxii4Sh--9">
          <mxGeometry x="-5" y="60" width="210" height="30" as="geometry" />
        </mxCell>
        <mxCell id="iNsdmit7dDFyfxii4Sh--28" value="no_chapitre_destination INTEGER &amp;lt;fk&amp;gt;" style="text;html=1;align=center;verticalAlign=middle;resizable=0;points=[];autosize=1;strokeColor=none;fillColor=none;" vertex="1" parent="iNsdmit7dDFyfxii4Sh--9">
          <mxGeometry x="-5" y="100" width="230" height="30" as="geometry" />
        </mxCell>
        <mxCell id="iNsdmit7dDFyfxii4Sh--10" value="livre" style="swimlane;whiteSpace=wrap;html=1;startSize=23;" vertex="1" parent="1">
          <mxGeometry x="320" y="310" width="200" height="110" as="geometry" />
        </mxCell>
        <mxCell id="iNsdmit7dDFyfxii4Sh--15" value="&lt;u&gt;id INTEGER &amp;lt;pk&amp;gt;&lt;/u&gt;" style="text;html=1;align=center;verticalAlign=middle;resizable=0;points=[];autosize=1;strokeColor=none;fillColor=none;" vertex="1" parent="iNsdmit7dDFyfxii4Sh--10">
          <mxGeometry y="30" width="120" height="30" as="geometry" />
        </mxCell>
        <mxCell id="iNsdmit7dDFyfxii4Sh--17" value="titre VARCHAR(255)" style="text;html=1;strokeColor=none;fillColor=none;align=center;verticalAlign=middle;whiteSpace=wrap;rounded=0;" vertex="1" parent="iNsdmit7dDFyfxii4Sh--10">
          <mxGeometry x="10" y="60" width="120" height="30" as="geometry" />
        </mxCell>
        <mxCell id="iNsdmit7dDFyfxii4Sh--11" value="fiche_personnage" style="swimlane;whiteSpace=wrap;html=1;" vertex="1" parent="1">
          <mxGeometry x="610" y="40" width="200" height="270" as="geometry" />
        </mxCell>
        <mxCell id="iNsdmit7dDFyfxii4Sh--43" value="&lt;u&gt;id INTEGER &amp;lt;pk&amp;gt;&lt;/u&gt;" style="text;html=1;align=center;verticalAlign=middle;resizable=0;points=[];autosize=1;strokeColor=none;fillColor=none;" vertex="1" parent="iNsdmit7dDFyfxii4Sh--11">
          <mxGeometry y="30" width="120" height="30" as="geometry" />
        </mxCell>
        <mxCell id="iNsdmit7dDFyfxii4Sh--44" value="nom VARCHAR(64)" style="text;html=1;align=center;verticalAlign=middle;resizable=0;points=[];autosize=1;strokeColor=none;fillColor=none;" vertex="1" parent="iNsdmit7dDFyfxii4Sh--11">
          <mxGeometry y="60" width="130" height="30" as="geometry" />
        </mxCell>
        <mxCell id="iNsdmit7dDFyfxii4Sh--45" value="bourse INTEGER" style="text;html=1;align=center;verticalAlign=middle;resizable=0;points=[];autosize=1;strokeColor=none;fillColor=none;" vertex="1" parent="iNsdmit7dDFyfxii4Sh--11">
          <mxGeometry y="90" width="120" height="30" as="geometry" />
        </mxCell>
        <mxCell id="iNsdmit7dDFyfxii4Sh--46" value="objet VARCHAR(255)" style="text;html=1;align=center;verticalAlign=middle;resizable=0;points=[];autosize=1;strokeColor=none;fillColor=none;" vertex="1" parent="iNsdmit7dDFyfxii4Sh--11">
          <mxGeometry y="120" width="140" height="30" as="geometry" />
        </mxCell>
        <mxCell id="iNsdmit7dDFyfxii4Sh--52" value="repas VARCHAR(255)" style="text;html=1;align=center;verticalAlign=middle;resizable=0;points=[];autosize=1;strokeColor=none;fillColor=none;" vertex="1" parent="iNsdmit7dDFyfxii4Sh--11">
          <mxGeometry y="150" width="140" height="30" as="geometry" />
        </mxCell>
        <mxCell id="iNsdmit7dDFyfxii4Sh--53" value="objet_speciaux VARCHAR(255)" style="text;html=1;align=center;verticalAlign=middle;resizable=0;points=[];autosize=1;strokeColor=none;fillColor=none;" vertex="1" parent="iNsdmit7dDFyfxii4Sh--11">
          <mxGeometry y="180" width="190" height="30" as="geometry" />
        </mxCell>
        <mxCell id="iNsdmit7dDFyfxii4Sh--54" value="livre_id INTEGER &amp;lt;fk&amp;gt;" style="text;html=1;align=center;verticalAlign=middle;resizable=0;points=[];autosize=1;strokeColor=none;fillColor=none;" vertex="1" parent="iNsdmit7dDFyfxii4Sh--11">
          <mxGeometry y="210" width="140" height="30" as="geometry" />
        </mxCell>
        <mxCell id="iNsdmit7dDFyfxii4Sh--55" value="chapitre_id INTEGER &amp;lt;fk&amp;gt;" style="text;html=1;align=center;verticalAlign=middle;resizable=0;points=[];autosize=1;strokeColor=none;fillColor=none;" vertex="1" parent="iNsdmit7dDFyfxii4Sh--11">
          <mxGeometry y="240" width="170" height="30" as="geometry" />
        </mxCell>
        <mxCell id="iNsdmit7dDFyfxii4Sh--12" value="chapitre" style="swimlane;whiteSpace=wrap;html=1;" vertex="1" parent="1">
          <mxGeometry x="320" y="550" width="200" height="160" as="geometry" />
        </mxCell>
        <mxCell id="iNsdmit7dDFyfxii4Sh--21" value="&lt;u&gt;id INTEGER &amp;lt;pk&amp;gt;&lt;/u&gt;" style="text;html=1;align=center;verticalAlign=middle;resizable=0;points=[];autosize=1;strokeColor=none;fillColor=none;" vertex="1" parent="iNsdmit7dDFyfxii4Sh--12">
          <mxGeometry y="30" width="120" height="30" as="geometry" />
        </mxCell>
        <mxCell id="iNsdmit7dDFyfxii4Sh--24" value="no_chapitre INTEGER" style="text;html=1;align=center;verticalAlign=middle;resizable=0;points=[];autosize=1;strokeColor=none;fillColor=none;" vertex="1" parent="iNsdmit7dDFyfxii4Sh--12">
          <mxGeometry y="60" width="140" height="30" as="geometry" />
        </mxCell>
        <mxCell id="iNsdmit7dDFyfxii4Sh--25" value="texte TEXT" style="text;html=1;align=center;verticalAlign=middle;resizable=0;points=[];autosize=1;strokeColor=none;fillColor=none;" vertex="1" parent="iNsdmit7dDFyfxii4Sh--12">
          <mxGeometry x="4" y="90" width="80" height="30" as="geometry" />
        </mxCell>
        <mxCell id="iNsdmit7dDFyfxii4Sh--22" value="livre_id INTEGER &amp;lt;fk&amp;gt;" style="text;html=1;align=center;verticalAlign=middle;resizable=0;points=[];autosize=1;strokeColor=none;fillColor=none;" vertex="1" parent="iNsdmit7dDFyfxii4Sh--12">
          <mxGeometry y="120" width="140" height="30" as="geometry" />
        </mxCell>
        <mxCell id="iNsdmit7dDFyfxii4Sh--13" value="disciplines_kai" style="swimlane;whiteSpace=wrap;html=1;" vertex="1" parent="1">
          <mxGeometry x="610" y="700" width="200" height="140" as="geometry" />
        </mxCell>
        <mxCell id="iNsdmit7dDFyfxii4Sh--29" value="&lt;u&gt;id INTEGER &amp;lt;pk&amp;gt;&lt;/u&gt;" style="text;html=1;align=center;verticalAlign=middle;resizable=0;points=[];autosize=1;strokeColor=none;fillColor=none;" vertex="1" parent="iNsdmit7dDFyfxii4Sh--13">
          <mxGeometry y="30" width="120" height="30" as="geometry" />
        </mxCell>
        <mxCell id="iNsdmit7dDFyfxii4Sh--30" value="nom VARCHAR(64)" style="text;html=1;align=center;verticalAlign=middle;resizable=0;points=[];autosize=1;strokeColor=none;fillColor=none;" vertex="1" parent="iNsdmit7dDFyfxii4Sh--13">
          <mxGeometry y="60" width="130" height="30" as="geometry" />
        </mxCell>
        <mxCell id="iNsdmit7dDFyfxii4Sh--31" value="livre_id INTEGER &amp;lt;fk&amp;gt;" style="text;html=1;align=center;verticalAlign=middle;resizable=0;points=[];autosize=1;strokeColor=none;fillColor=none;" vertex="1" parent="iNsdmit7dDFyfxii4Sh--13">
          <mxGeometry y="90" width="140" height="30" as="geometry" />
        </mxCell>
        <mxCell id="iNsdmit7dDFyfxii4Sh--57" value="" style="endArrow=classic;html=1;rounded=0;entryX=-0.011;entryY=0.61;entryDx=0;entryDy=0;entryPerimeter=0;" edge="1" parent="1" target="iNsdmit7dDFyfxii4Sh--15">
          <mxGeometry width="50" height="50" relative="1" as="geometry">
            <mxPoint x="240" y="230" as="sourcePoint" />
            <mxPoint x="480" y="390" as="targetPoint" />
            <Array as="points">
              <mxPoint x="260" y="230" />
              <mxPoint x="260" y="358" />
            </Array>
          </mxGeometry>
        </mxCell>
        <mxCell id="iNsdmit7dDFyfxii4Sh--59" value="" style="endArrow=classic;html=1;rounded=0;exitX=-0.009;exitY=0.657;exitDx=0;exitDy=0;exitPerimeter=0;" edge="1" parent="1" source="iNsdmit7dDFyfxii4Sh--22">
          <mxGeometry width="50" height="50" relative="1" as="geometry">
            <mxPoint x="430" y="440" as="sourcePoint" />
            <mxPoint x="319" y="360" as="targetPoint" />
            <Array as="points">
              <mxPoint x="300" y="690" />
              <mxPoint x="300" y="360" />
            </Array>
          </mxGeometry>
        </mxCell>
        <mxCell id="iNsdmit7dDFyfxii4Sh--61" value="" style="endArrow=classic;html=1;rounded=0;" edge="1" parent="1">
          <mxGeometry width="50" height="50" relative="1" as="geometry">
            <mxPoint x="230" y="500" as="sourcePoint" />
            <mxPoint x="320" y="360" as="targetPoint" />
            <Array as="points">
              <mxPoint x="260" y="500" />
              <mxPoint x="260" y="360" />
            </Array>
          </mxGeometry>
        </mxCell>
        <mxCell id="iNsdmit7dDFyfxii4Sh--62" value="" style="endArrow=classic;html=1;rounded=0;exitX=1;exitY=0.5;exitDx=0;exitDy=0;entryX=0;entryY=0.5;entryDx=0;entryDy=0;entryPerimeter=0;" edge="1" parent="1" source="iNsdmit7dDFyfxii4Sh--9" target="iNsdmit7dDFyfxii4Sh--21">
          <mxGeometry width="50" height="50" relative="1" as="geometry">
            <mxPoint x="430" y="440" as="sourcePoint" />
            <mxPoint x="480" y="390" as="targetPoint" />
            <Array as="points">
              <mxPoint x="280" y="760" />
              <mxPoint x="280" y="595" />
            </Array>
          </mxGeometry>
        </mxCell>
        <mxCell id="iNsdmit7dDFyfxii4Sh--64" value="" style="endArrow=classic;html=1;rounded=0;" edge="1" parent="1">
          <mxGeometry width="50" height="50" relative="1" as="geometry">
            <mxPoint x="250" y="805" as="sourcePoint" />
            <mxPoint x="320" y="590" as="targetPoint" />
            <Array as="points">
              <mxPoint x="280" y="805" />
              <mxPoint x="280" y="590" />
            </Array>
          </mxGeometry>
        </mxCell>
        <mxCell id="iNsdmit7dDFyfxii4Sh--65" value="" style="endArrow=classic;html=1;rounded=0;exitX=-0.015;exitY=0.6;exitDx=0;exitDy=0;exitPerimeter=0;" edge="1" parent="1" source="iNsdmit7dDFyfxii4Sh--54">
          <mxGeometry width="50" height="50" relative="1" as="geometry">
            <mxPoint x="430" y="440" as="sourcePoint" />
            <mxPoint x="520" y="350" as="targetPoint" />
            <Array as="points">
              <mxPoint x="540" y="268" />
              <mxPoint x="540" y="350" />
            </Array>
          </mxGeometry>
        </mxCell>
        <mxCell id="iNsdmit7dDFyfxii4Sh--66" value="" style="endArrow=classic;html=1;rounded=0;exitX=0.001;exitY=0.552;exitDx=0;exitDy=0;exitPerimeter=0;entryX=1;entryY=0.25;entryDx=0;entryDy=0;" edge="1" parent="1" source="iNsdmit7dDFyfxii4Sh--55" target="iNsdmit7dDFyfxii4Sh--12">
          <mxGeometry width="50" height="50" relative="1" as="geometry">
            <mxPoint x="430" y="440" as="sourcePoint" />
            <mxPoint x="480" y="390" as="targetPoint" />
            <Array as="points">
              <mxPoint x="560" y="297" />
              <mxPoint x="560" y="590" />
            </Array>
          </mxGeometry>
        </mxCell>
        <mxCell id="iNsdmit7dDFyfxii4Sh--67" value="" style="endArrow=classic;html=1;rounded=0;exitX=0.001;exitY=0.695;exitDx=0;exitDy=0;exitPerimeter=0;entryX=1;entryY=0.25;entryDx=0;entryDy=0;" edge="1" parent="1" source="iNsdmit7dDFyfxii4Sh--31" target="iNsdmit7dDFyfxii4Sh--12">
          <mxGeometry width="50" height="50" relative="1" as="geometry">
            <mxPoint x="430" y="440" as="sourcePoint" />
            <mxPoint x="480" y="390" as="targetPoint" />
            <Array as="points">
              <mxPoint x="560" y="810" />
              <mxPoint x="560" y="590" />
            </Array>
          </mxGeometry>
        </mxCell>
        <mxCell id="iNsdmit7dDFyfxii4Sh--68" value="" style="endArrow=classic;html=1;rounded=0;exitX=0;exitY=0.75;exitDx=0;exitDy=0;entryX=-0.018;entryY=0.41;entryDx=0;entryDy=0;entryPerimeter=0;" edge="1" parent="1" source="iNsdmit7dDFyfxii4Sh--7" target="iNsdmit7dDFyfxii4Sh--29">
          <mxGeometry width="50" height="50" relative="1" as="geometry">
            <mxPoint x="430" y="440" as="sourcePoint" />
            <mxPoint x="480" y="390" as="targetPoint" />
            <Array as="points">
              <mxPoint x="580" y="516" />
              <mxPoint x="580" y="742" />
            </Array>
          </mxGeometry>
        </mxCell>
        <mxCell id="iNsdmit7dDFyfxii4Sh--69" value="" style="endArrow=classic;html=1;rounded=0;exitX=-0.011;exitY=0.529;exitDx=0;exitDy=0;exitPerimeter=0;entryX=-0.018;entryY=0.543;entryDx=0;entryDy=0;entryPerimeter=0;" edge="1" parent="1" source="iNsdmit7dDFyfxii4Sh--33" target="iNsdmit7dDFyfxii4Sh--43">
          <mxGeometry width="50" height="50" relative="1" as="geometry">
            <mxPoint x="430" y="440" as="sourcePoint" />
            <mxPoint x="480" y="390" as="targetPoint" />
            <Array as="points">
              <mxPoint x="580" y="490" />
              <mxPoint x="580" y="86" />
            </Array>
          </mxGeometry>
        </mxCell>
        <mxCell id="iNsdmit7dDFyfxii4Sh--71" value="" style="endArrow=classic;html=1;rounded=0;exitX=0.013;exitY=0.505;exitDx=0;exitDy=0;exitPerimeter=0;" edge="1" parent="1" source="iNsdmit7dDFyfxii4Sh--37">
          <mxGeometry width="50" height="50" relative="1" as="geometry">
            <mxPoint x="430" y="440" as="sourcePoint" />
            <mxPoint x="240" y="165" as="targetPoint" />
          </mxGeometry>
        </mxCell>
        <mxCell id="iNsdmit7dDFyfxii4Sh--72" value="" style="endArrow=classic;html=1;rounded=0;entryX=-0.056;entryY=0.543;entryDx=0;entryDy=0;entryPerimeter=0;" edge="1" parent="1" target="iNsdmit7dDFyfxii4Sh--43">
          <mxGeometry width="50" height="50" relative="1" as="geometry">
            <mxPoint x="520" y="170" as="sourcePoint" />
            <mxPoint x="580" y="90" as="targetPoint" />
            <Array as="points">
              <mxPoint x="560" y="170" />
              <mxPoint x="560" y="86" />
            </Array>
          </mxGeometry>
        </mxCell>
        <mxCell id="iNsdmit7dDFyfxii4Sh--73" value="" style="endArrow=classic;html=1;rounded=0;entryX=-0.049;entryY=0.305;entryDx=0;entryDy=0;entryPerimeter=0;" edge="1" parent="1" target="iNsdmit7dDFyfxii4Sh--21">
          <mxGeometry width="50" height="50" relative="1" as="geometry">
            <mxPoint x="230" y="480" as="sourcePoint" />
            <mxPoint x="480" y="390" as="targetPoint" />
            <Array as="points">
              <mxPoint x="280" y="480" />
              <mxPoint x="280" y="590" />
            </Array>
          </mxGeometry>
        </mxCell>
        <mxCell id="iNsdmit7dDFyfxii4Sh--74" value="" style="endArrow=classic;html=1;rounded=0;exitX=-0.01;exitY=0.552;exitDx=0;exitDy=0;exitPerimeter=0;entryX=-0.027;entryY=0.429;entryDx=0;entryDy=0;entryPerimeter=0;" edge="1" parent="1" source="iNsdmit7dDFyfxii4Sh--42" target="iNsdmit7dDFyfxii4Sh--43">
          <mxGeometry width="50" height="50" relative="1" as="geometry">
            <mxPoint x="430" y="440" as="sourcePoint" />
            <mxPoint x="480" y="390" as="targetPoint" />
            <Array as="points">
              <mxPoint x="10" y="537" />
              <mxPoint x="10" y="20" />
              <mxPoint x="560" y="20" />
              <mxPoint x="560" y="83" />
            </Array>
          </mxGeometry>
        </mxCell>
      </root>
    </mxGraphModel>
  </diagram>
</mxfile>
